<svg width="53" height="53" viewBox="0 0 53 53" fill="none" xmlns="http://www.w3.org/2000/svg">
<path d="M0 9.10913C0 4.0783 4.0783 0 9.10913 0H43.8909C48.9217 0 53 4.0783 53 9.10913V43.8909C53 48.9217 48.9217 53 43.8909 53H9.10913C4.0783 53 0 48.9217 0 43.8909V9.10913Z" fill="#262626"/>
<g clip-path="url(#clip0_18_4)">
<path d="M27.4275 17.9972H24.5772L23.481 21.9878H19.6884L19.206 24.3341H22.8231L21.924 27.6668H18.4824L18 30.0131H21.267L20.1708 34.0037H23.0427L24.1389 30.0131H27.756L26.6598 34.0037H29.5101L30.6063 30.0131H34.3116L34.794 27.6668H31.2426L32.1633 24.3341H35.5176L36 21.9878H32.7987L33.8949 17.9972H31.023L29.9268 21.9878H26.3313L27.4275 17.9972ZM24.7743 27.6659L25.695 24.3332H29.2905L28.3914 27.6659H24.7743Z" fill="white"/>
</g>
<defs>
<clipPath id="clip0_18_4">
<rect width="18" height="18" fill="white" transform="translate(18 17)"/>
</clipPath>
</defs>
</svg>
