<svg width="53" height="53" viewBox="0 0 53 53" fill="none" xmlns="http://www.w3.org/2000/svg">
<path d="M0 9.10913C0 4.0783 4.0783 0 9.10913 0H43.8909C48.9217 0 53 4.0783 53 9.10913V43.8909C53 48.9217 48.9217 53 43.8909 53H9.10913C4.0783 53 0 48.9217 0 43.8909V9.10913Z" fill="#262626"/>
<g clip-path="url(#clip0_18_6)">
<path d="M17 26C17 30.9923 21.0077 35 26 35C30.9923 35 35 30.9923 35 26C35 21.0077 30.9923 17 26 17C21.0077 17 17 21.0077 17 26ZM20.5037 26H31.4954C31.4954 29.0483 29.0951 31.4477 25.9991 31.4477C22.9031 31.4477 20.5028 29.0474 20.5028 26H20.5037Z" fill="white"/>
</g>
<defs>
<clipPath id="clip0_18_6">
<rect width="18" height="18" fill="white" transform="translate(17 17)"/>
</clipPath>
</defs>
</svg>
