<svg width="53" height="53" viewBox="0 0 53 53" fill="none" xmlns="http://www.w3.org/2000/svg">
<path d="M0 9.10913C0 4.0783 4.0783 0 9.10913 0H43.8909C48.9217 0 53 4.0783 53 9.10913V43.8909C53 48.9217 48.9217 53 43.8909 53H9.10913C4.0783 53 0 48.9217 0 43.8909V9.10913Z" fill="#262626"/>
<g clip-path="url(#clip0_18_2)">
<path d="M27.3761 17L27.008 18.7244C23.3846 18.7829 21.0788 20.5073 21.0788 23.2199C21.0788 25.0991 22.1255 26.1845 24.5663 26.8046C25.3799 27.0179 26.3492 27.2114 27.008 27.386C28.4228 27.7541 28.9646 28.2194 28.9646 29.033C28.9646 30.176 27.7442 30.8735 25.8065 30.8735C23.8499 30.8735 22.2803 29.9051 21.5441 28.2383L19.1222 29.4011C19.9358 31.3388 21.7187 32.6951 23.966 33.1604L23.5781 35.0009H25.496L25.8452 33.335C29.5847 33.2963 31.9877 31.4747 31.9877 28.6658C31.9877 26.7281 30.7862 25.5464 28.151 24.8876C27.2213 24.6554 26.5814 24.5582 25.8452 24.3836C24.5663 24.074 24.0821 23.6861 24.0821 22.9688C24.0821 21.8447 25.1864 21.167 27.0467 21.167C28.5776 21.167 29.8367 21.8645 30.7088 23.201L32.8787 21.6701C31.9877 20.2553 30.5729 19.2869 28.8872 18.9188L29.294 17.0009H27.3761V17Z" fill="white"/>
</g>
<defs>
<clipPath id="clip0_18_2">
<rect width="18" height="18" fill="white" transform="translate(17 17)"/>
</clipPath>
</defs>
</svg>
