<svg width="53" height="53" viewBox="0 0 53 53" fill="none" xmlns="http://www.w3.org/2000/svg">
<path d="M0 9.10913C0 4.0783 4.0783 0 9.10913 0H43.8909C48.9217 0 53 4.0783 53 9.10913V43.8909C53 48.9217 48.9217 53 43.8909 53H9.10913C4.0783 53 0 48.9217 0 43.8909V9.10913Z" fill="#262626"/>
<path d="M22.1939 17L21.8051 18.4715L21.4163 19.9673L21.0275 21.4388L20.6603 22.9346L20.2715 24.4061L19.8827 25.8776H23.7941L21.437 34.9973L32.1191 23.1533H26.6048L26.6696 22.9355L27.0584 21.4397L27.4472 19.9682L27.8144 18.4724L28.2032 17.0009H22.1939V17Z" fill="white"/>
</svg>
